Coordinates
version=1
nRows=19
nColumns=24
inDegrees=yes

Units are S.I. units (second, meters, Newtons, ...)
Angles are in degrees.

endheader
time	pelvis_tilt	pelvis_list	pelvis_rotation	pelvis_tx	pelvis_ty	pelvis_tz	hip_flexion_r	hip_adduction_r	hip_rotation_r	knee_angle_r	ankle_angle_r	subtalar_angle_r	mtp_angle_r	hip_flexion_l	hip_adduction_l	hip_rotation_l	knee_angle_l	ankle_angle_l	subtalar_angle_l	mtp_angle_l	lumbar_extension	lumbar_bending	lumbar_rotation
      1.37466667	     -5.46845142	      2.73255194	     -7.00590341	      0.43926458	      1.06349272	      0.32208581	     19.41497872	     -6.34954965	     -3.73329577	    -68.70795453	      0.76828166	     -2.11087177	      9.61686553	     15.19565108	      4.20528832	      0.66710625	    -15.58323944	      6.15701712	     -1.95811174	      3.21513956	    -11.02513586	     -5.19082771	      0.32929395
      1.37883333	     -5.43529070	      2.64034110	     -6.89764785	      0.44434908	      1.06452094	      0.32190075	     19.84877291	     -6.19711393	     -3.81296557	    -68.33584310	      1.10537073	     -1.83014907	      9.68281555	     14.60561785	      4.18324092	      0.88231979	    -15.06897688	      6.12795048	     -2.05299314	      3.20327917	    -11.03399950	     -5.08002318	      0.18848156
      1.38300000	     -5.38884223	      2.54037086	     -6.78593632	      0.44941389	      1.06555972	      0.32172372	     20.25715563	     -6.03771073	     -3.90047628	    -67.91630013	      1.43346615	     -1.56241486	      9.74916719	     14.00181002	      4.15090802	      1.10356820	    -14.55452450	      6.08772903	     -2.13786378	      3.19236153	    -11.07442053	     -4.96756485	      0.06048011
      1.38716667	     -5.34417497	      2.42621241	     -6.66182826	      0.45446939	      1.06654490	      0.32152723	     20.65199907	     -5.86316593	     -3.99736607	    -67.45259336	      1.75809303	     -1.29769775	      9.81515831	     13.40461168	      4.10227320	      1.32777690	    -14.05061599	      6.05450242	     -2.20863382	      3.18312756	    -11.11471555	     -4.83356525	     -0.06623779
      1.39133333	     -5.31377142	      2.34836868	     -6.53765409	      0.45952454	      1.06745065	      0.32134286	     21.06637158	     -5.72734854	     -4.08565669	    -66.96975249	      2.09559911	     -1.05564614	      9.90897249	     12.81188866	      4.09106073	      1.59144770	    -13.50927800	      5.94189764	     -2.37352825	      3.16811159	    -11.13163346	     -4.74437938	     -0.23116229
      1.39550000	     -5.30653743	      2.21925088	     -6.39801714	      0.46456792	      1.06828393	      0.32114106	     21.47846728	     -5.53259806	     -4.19502996	    -66.42718995	      2.40178677	     -0.81458800	      9.95202304	     12.27519090	      4.01270403	      1.78408543	    -13.04989399	      5.94796656	     -2.35358286	      3.16414258	    -11.13246777	     -4.59518156	     -0.29726047
      1.39966667	     -5.25390621	      2.13472517	     -6.26908186	      0.46961618	      1.06912845	      0.32092741	     21.85025572	     -5.40149848	     -4.29617368	    -65.87458212	      2.72253994	     -0.54527784	     10.01859088	     11.66004057	      3.99325728	      2.04872696	    -12.51264689	      5.90797016	     -2.50386875	      3.15472982	    -11.17364878	     -4.47800145	     -0.47825328
      1.40383333	     -5.24987422	      2.05175166	     -6.12867592	      0.47464505	      1.06982878	      0.32073015	     22.26709493	     -5.26138210	     -4.39664068	    -65.29213811	      3.03726745	     -0.35169815	     10.09476931	     11.10770193	      3.96567303	      2.32461716	    -11.99276521	      5.81159377	     -2.66368783	      3.14326350	    -11.16524807	     -4.37192727	     -0.63309524
      1.40800000	     -5.22993753	      1.95373813	     -5.98664406	      0.47968409	      1.07052510	      0.32052367	     22.64981095	     -5.11063237	     -4.50578900	    -64.66405436	      3.32358704	     -0.15228905	     10.15278873	     10.54684837	      3.91834761	      2.56219198	    -11.49745167	      5.79622989	     -2.75187746	      3.13564969	    -11.16713458	     -4.24643482	     -0.74936377
      1.41216667	     -5.21947294	      1.85920166	     -5.84198188	      0.48470389	      1.07114536	      0.32032374	     23.03706602	     -4.96182161	     -4.61236229	    -64.00909912	      3.61070325	      0.01905701	     10.20327982	     10.00005223	      3.87042815	      2.80806238	    -11.00574787	      5.76180959	     -2.85210224	      3.12796226	    -11.16200502	     -4.12537146	     -0.87974653
      1.41633333	     -5.21549025	      1.77646670	     -5.69556191	      0.48971922	      1.07169882	      0.32012638	     23.42632599	     -4.82649228	     -4.71623856	    -63.32991248	      3.89349610	      0.15800722	     10.24910357	      9.46139236	      3.83235475	      3.06706380	    -10.51213797	      5.71467913	     -2.97820933	      3.11944900	    -11.15138899	     -4.01653841	     -1.01414381
      1.42050000	     -5.22658789	      1.68946715	     -5.54739950	      0.49471990	      1.07217468	      0.31994192	     23.82233498	     -4.68274250	     -4.81515210	    -62.61869334	      4.16296736	      0.25718819	     10.29136911	      8.94376966	      3.78390139	      3.32697175	    -10.02614730	      5.66909289	     -3.11008340	      3.11043886	    -11.12395121	     -3.90162296	     -1.14775022
      1.42466667	     -5.24058987	      1.59099496	     -5.39572461	      0.49970998	      1.07260930	      0.31977350	     24.20586314	     -4.52473043	     -4.91693913	    -61.86868602	      4.43520914	      0.31945281	     10.31112734	      8.45480912	      3.71381104	      3.50775627	     -9.59482132	      5.65726837	     -3.11076895	      3.10674603	    -11.09510839	     -3.79110573	     -1.21361685
      1.42883333	     -5.25114406	      1.53287385	     -5.25319602	      0.50468240	      1.07295750	      0.31959778	     24.59799070	     -4.41472123	     -5.00067340	    -61.12153043	      4.69453964	      0.37668136	     10.34252370	      7.92973032	      3.69371601	      3.82355492	     -9.08359981	      5.59177986	     -3.34806346	      3.09605638	    -11.07606857	     -3.70013789	     -1.40511909
      1.43300000	     -5.27576768	      1.45387523	     -5.10445602	      0.50965825	      1.07324605	      0.31942958	     24.98443177	     -4.28102101	     -5.09188579	    -60.32994808	      4.93171562	      0.40697349	     10.36138941	      7.44745093	      3.64210523	      4.06159623	     -8.63653534	      5.59885369	     -3.45525777	      3.08910799	    -11.02534961	     -3.59363490	     -1.50274339
      1.43716667	     -5.31272414	      1.38480771	     -4.96646428	      0.51461403	      1.07345037	      0.31930320	     25.38397078	     -4.14923512	     -5.16330099	    -59.52433494	      5.19950319	      0.38119168	     10.36730275	      7.00030032	      3.58941149	      4.20035712	     -8.22969509	      5.62389792	     -3.39947949	      3.08813808	    -10.97227234	     -3.50485550	     -1.53947813
      1.44133333	     -5.29832414	      1.31514313	     -4.81497136	      0.51952777	      1.07370821	      0.31914509	     25.71212954	     -4.02834132	     -5.23763927	    -58.67718036	      5.41585633	      0.36123725	     10.37121262	      6.46880005	      3.54947597	      4.54163737	     -7.75754574	      5.57451549	     -3.68234960	      3.07774858	    -10.98920505	     -3.41506841	     -1.74614308
      1.44550000	     -5.35351530	      1.25099861	     -4.67027581	      0.52445460	      1.07377876	      0.31901807	     26.11183623	     -3.90212916	     -5.30000232	    -57.81628293	      5.64913616	      0.30292452	     10.36770402	      6.04001077	      3.50076328	      4.78041689	     -7.34485593	      5.57578358	     -3.79974520	      3.07022981	    -10.91663048	     -3.33065373	     -1.82576490
      1.44966667	     -5.40904727	      1.19071293	     -4.52950193	      0.52936529	      1.07379871	      0.31891851	     26.50318180	     -3.77757803	     -5.35169355	    -56.93088100	      5.90508563	      0.23486586	     10.36503604	      5.63659018	      3.44853698	      4.92964197	     -6.98187995	      5.61460509	     -3.78311265	      3.06866352	    -10.84324320	     -3.26138232	     -1.86658644
